# xmcd CD database file
#
# Track frame offsets:
#	150
#	22932
#	47380
#	70115
#
# Disc length: 1258 seconds
#
# Revision: 1
# Processed by: cddbd v1.5.1PL0 Copyright (c) Steve Scherf et al.
# Submitted via: CDex 1.50beta8
#
DISCID=2404e804
DTITLE=野川さくら - CDS「そよ風のロンド」
DYEAR=2001
DGENRE=Anime
TTITLE0=そよ風のロンド
TTITLE1=ずっと.....
TTITLE2=そよ風のロンド　(offvocal)
TTITLE3=ずっと.....　(offvocal)
EXTD=YEAR: 2001
EXTT0=
EXTT1=
EXTT2=
EXTT3=
PLAYORDER=
